<svg width="512" height="512" fill="none" xmlns="http://www.w3.org/2000/svg"><path fill-rule="evenodd" clip-rule="evenodd" d="M256 68.737c-106.08 0-192 85.92-192 192 0 84.96 54.96 156.72 131.28 182.16 9.6 1.68 13.2-4.08 13.2-9.12 0-4.56-.24-19.68-.24-35.76-48.24 8.88-60.72-11.76-64.56-22.56-2.16-5.52-11.52-22.56-19.68-27.12-6.72-3.6-16.32-12.48-.24-12.72 15.12-.24 25.92 13.92 29.52 19.68 17.28 29.04 44.88 20.88 55.92 15.84 1.68-12.48 6.72-20.88 12.24-25.68-42.72-4.8-87.36-21.36-87.36-94.8 0-20.88 7.44-38.16 19.68-51.6-1.92-4.8-8.64-24.48 1.92-50.88 0 0 16.08-5.04 52.8 19.68 15.36-4.32 31.68-6.48 48-6.48s32.64 2.16 48 6.48c36.72-24.96 52.8-19.68 52.8-19.68 10.56 26.4 3.84 46.08 1.92 50.88 12.24 13.44 19.68 30.48 19.68 51.6 0 73.68-44.88 90-87.6 94.8 6.96 6 12.96 17.52 12.96 35.52 0 25.68-.24 46.32-.24 52.8 0 5.04 3.6 11.04 13.2 9.12 75.84-25.44 130.8-97.44 130.8-182.16 0-106.08-85.92-192-192-192Z" fill="#1b1f23"/></svg>